<svg width="44" height="44" viewBox="0 0 44 44" fill="none" xmlns="http://www.w3.org/2000/svg">
<circle cx="22" cy="22" r="21.5" fill="white" stroke="#F1F1F5"/>
<path d="M19.2454 28.4167C19.3661 28.4174 19.4857 28.3943 19.5974 28.3487C19.709 28.303 19.8106 28.2358 19.8963 28.1509L25.3963 22.6509C25.567 22.4791 25.6628 22.2468 25.6628 22.0046C25.6628 21.7624 25.567 21.5301 25.3963 21.3584L19.8963 15.8584C19.7209 15.7082 19.4954 15.6297 19.2646 15.6386C19.0339 15.6475 18.8151 15.7432 18.6518 15.9064C18.4886 16.0697 18.393 16.2885 18.384 16.5192C18.3751 16.7499 18.4536 16.9755 18.6038 17.1509L23.4529 22L18.6038 26.8492C18.4751 26.9769 18.3871 27.1398 18.351 27.3175C18.3149 27.4951 18.3323 27.6795 18.401 27.8473C18.4696 28.0151 18.5865 28.1587 18.7368 28.2601C18.8872 28.3614 19.0642 28.4159 19.2454 28.4167Z" fill="#0C0D0D"/>
</svg>
