<svg width="35" height="35" viewBox="0 0 35 35" fill="none" xmlns="http://www.w3.org/2000/svg">
<rect width="35" height="35" fill="white"/>
<g clip-path="url(#clip0_68_1619)">
<path d="M29.4566 4.60303H5.54311C4.87152 4.60303 4.32642 5.14813 4.32642 5.81972V30.9239C4.32642 31.5955 4.87152 32.1406 5.54311 32.1406H29.4566C30.1282 32.1406 30.6733 31.5955 30.6733 30.9239V5.81972C30.6733 5.14813 30.1283 4.60303 29.4566 4.60303Z" fill="url(#paint0_linear_68_1619)"/>
<path d="M29.4565 32.1405H5.54347C4.87152 32.1405 4.32678 31.5959 4.32678 30.9239V17.7432H30.6732V30.9239C30.6732 31.5959 30.1284 32.1405 29.4565 32.1405Z" fill="url(#paint1_linear_68_1619)"/>
<path d="M29.4565 32.1408H5.54347C4.87152 32.1408 4.32678 31.5962 4.32678 30.9242V28.3691H30.6732V30.9242C30.6732 31.5962 30.1284 32.1408 29.4565 32.1408Z" fill="url(#paint2_linear_68_1619)"/>
<path d="M31.7827 29.18H3.21718C2.43564 29.18 1.85682 28.4537 2.03119 27.6919L4.32676 17.6621H30.6731L32.9687 27.6919C33.1431 28.4537 32.5642 29.18 31.7827 29.18Z" fill="url(#paint3_linear_68_1619)"/>
<path d="M31.7827 29.18H3.21718C2.43564 29.18 1.85682 28.4537 2.03119 27.6919L4.32676 17.6621H30.6731L32.9687 27.6919C33.1431 28.4537 32.5642 29.18 31.7827 29.18Z" fill="url(#paint4_linear_68_1619)"/>
<path d="M31.7827 29.18C32.5642 29.18 33.143 28.4537 32.9687 27.6919L30.6731 17.6621H4.32678L15.8447 29.18H31.7827Z" fill="url(#paint5_linear_68_1619)"/>
<path d="M30.6732 29.1802H4.32678V29.2207L7.24678 32.1407H29.4565C30.1284 32.1407 30.6732 31.5961 30.6732 30.924V29.1802Z" fill="url(#paint6_linear_68_1619)"/>
<path d="M11.2113 20.0752V14.942C11.2113 13.5898 11.5699 12.5958 12.2873 11.9608C13.0045 11.3257 13.9632 11.0083 15.1626 11.0083C16.3621 11.0083 17.3235 11.3258 18.0467 11.9608C18.77 12.5959 19.1316 13.5897 19.1316 14.942V20.0752C19.1316 21.4277 18.77 22.4213 18.0467 23.0563C17.3235 23.6914 16.3621 24.0089 15.1626 24.0089C13.9631 24.0089 13.0045 23.6914 12.2873 23.0563C11.5699 22.4213 11.2113 21.4276 11.2113 20.0752ZM13.0812 20.0752C13.0812 21.5923 13.7749 22.3508 15.1627 22.3508C15.833 22.3508 16.3504 22.1628 16.715 21.7862C17.0794 21.4101 17.2618 20.8398 17.2618 20.0752V14.942C17.2618 14.1777 17.0794 13.6073 16.715 13.2309C16.3504 12.8547 15.833 12.6664 15.1627 12.6664C13.7749 12.6664 13.0812 13.4249 13.0812 14.942V20.0752Z" fill="white"/>
<path d="M20.2782 13.672C20.2782 13.3663 20.4016 13.1252 20.6486 12.9487L22.4832 11.1848C22.6124 11.0555 22.7712 10.9907 22.9595 10.9907C23.1712 10.9907 23.3622 11.0467 23.5328 11.1583C23.7032 11.2701 23.7885 11.4201 23.7885 11.6081V23.2857C23.7885 23.474 23.6943 23.624 23.5063 23.7355C23.3181 23.8474 23.1006 23.9031 22.8536 23.9031C22.5948 23.9031 22.3743 23.8475 22.1921 23.7355C22.0097 23.6239 21.9187 23.474 21.9187 23.2857V13.4779L21.3013 14.2541C21.1837 14.3717 21.0543 14.4305 20.9132 14.4305C20.7368 14.4305 20.5869 14.3511 20.4634 14.1923C20.3399 14.0336 20.2782 13.8603 20.2782 13.672Z" fill="white"/>
<path d="M17.2614 17.6621V20.0752C17.2614 20.8401 17.0797 21.4103 16.7148 21.7867C16.3506 22.1631 15.8331 22.3512 15.1631 22.3512C13.7752 22.3512 13.0809 21.592 13.0809 20.0753V17.6622H11.2113V20.0753C11.2113 21.4282 11.5698 22.4218 12.2876 23.0561C13.0046 23.6912 13.9635 24.0092 15.1631 24.0092C16.362 24.0092 17.3239 23.6912 18.0466 23.0561C18.7702 22.4218 19.1319 21.4282 19.1319 20.0753V17.6622L17.2614 17.6621Z" fill="url(#paint7_linear_68_1619)"/>
<path d="M21.9189 17.6621V23.2856C21.9189 23.4738 22.0098 23.6239 22.1923 23.7358C22.374 23.8478 22.5945 23.9029 22.8533 23.9029C23.1007 23.9029 23.3181 23.8477 23.5062 23.7358C23.6944 23.6239 23.7885 23.4738 23.7885 23.2856V17.6621H21.9189Z" fill="url(#paint8_linear_68_1619)"/>
<path d="M32.9689 27.6916L30.6734 17.6621V5.81972C30.6734 5.14813 30.1282 4.60303 29.4567 4.60303H28.8812C29.5528 4.60303 30.0979 5.14813 30.0979 5.81972V17.6621L32.3934 27.6916C32.5678 28.4541 31.9887 29.18 31.2076 29.18H31.783C32.5641 29.18 33.1432 28.454 32.9689 27.6916Z" fill="url(#paint9_linear_68_1619)"/>
<path d="M12.3452 6.77036C12.1238 6.56275 11.9843 6.2691 11.9843 5.94136V4.60303H14.2554L16.1102 6.45782C16.7013 7.049 17.0335 7.85088 17.0335 8.68697C17.0335 9.29947 16.5623 9.82622 15.9504 9.85389C15.6016 9.86964 15.2876 9.72729 15.069 9.49419L12.3452 6.77036Z" fill="url(#paint10_linear_68_1619)"/>
<path d="M13.1199 7.07719C12.4928 7.07719 11.9844 6.56878 11.9844 5.94163V3.99493C11.9844 3.36779 12.4928 2.85938 13.1199 2.85938C13.7471 2.85938 14.2555 3.36779 14.2555 3.99493V5.94157C14.2555 6.56878 13.7471 7.07719 13.1199 7.07719Z" fill="url(#paint11_linear_68_1619)"/>
<path d="M13.1199 2.85938V7.07719C13.747 7.07719 14.2554 6.56878 14.2554 5.94163V3.99493C14.2554 3.36779 13.747 2.85938 13.1199 2.85938Z" fill="url(#paint12_linear_68_1619)"/>
<path d="M20.5984 6.77036C20.3769 6.56275 20.2374 6.2691 20.2374 5.94136V4.60303H22.5085L24.3633 6.45782C24.9545 7.049 25.2867 7.85088 25.2867 8.68697C25.2867 9.29947 24.8154 9.82622 24.2036 9.85389C23.8548 9.86964 23.5408 9.72729 23.3222 9.49419L20.5984 6.77036Z" fill="url(#paint13_linear_68_1619)"/>
<path d="M21.3731 7.07719C20.746 7.07719 20.2375 6.56878 20.2375 5.94163V3.99493C20.2375 3.36779 20.746 2.85938 21.3731 2.85938C22.0002 2.85938 22.5087 3.36779 22.5087 3.99493V5.94157C22.5087 6.56878 22.0002 7.07719 21.3731 7.07719Z" fill="url(#paint14_linear_68_1619)"/>
<path d="M21.373 2.85938V7.07719C22.0002 7.07719 22.5086 6.56878 22.5086 5.94163V3.99493C22.5086 3.36779 22.0001 2.85938 21.373 2.85938Z" fill="url(#paint15_linear_68_1619)"/>
</g>
<defs>
<linearGradient id="paint0_linear_68_1619" x1="12.9157" y1="8.1834" x2="19.9355" y2="23.7827" gradientUnits="userSpaceOnUse">
<stop stop-color="#00A6F9"/>
<stop offset="1" stop-color="#0071E2"/>
</linearGradient>
<linearGradient id="paint1_linear_68_1619" x1="8.49671" y1="14.8389" x2="26.5864" y2="34.3928" gradientUnits="userSpaceOnUse">
<stop stop-color="#C2CECE"/>
<stop offset="1" stop-color="#97AAAA"/>
</linearGradient>
<linearGradient id="paint2_linear_68_1619" x1="17.5004" y1="31.7975" x2="17.5004" y2="29.0991" gradientUnits="userSpaceOnUse">
<stop stop-color="#C2CECE" stop-opacity="0"/>
<stop offset="0.179" stop-color="#AFBCBC" stop-opacity="0.179"/>
<stop offset="1" stop-color="#5B6A6A"/>
</linearGradient>
<linearGradient id="paint3_linear_68_1619" x1="6.18435" y1="18.633" x2="35.209" y2="31.7057" gradientUnits="userSpaceOnUse">
<stop stop-color="#00A6F9"/>
<stop offset="1" stop-color="#0071E2"/>
</linearGradient>
<linearGradient id="paint4_linear_68_1619" x1="17.5004" y1="28.0712" x2="17.5004" y2="29.6936" gradientUnits="userSpaceOnUse">
<stop offset="0.0001" stop-color="#008BF2" stop-opacity="0"/>
<stop offset="1" stop-color="#0046E2"/>
</linearGradient>
<linearGradient id="paint5_linear_68_1619" x1="23.0031" y1="23.1641" x2="4.61491" y2="4.77605" gradientUnits="userSpaceOnUse">
<stop offset="0.0001" stop-color="#008BF2" stop-opacity="0"/>
<stop offset="1" stop-color="#0046E2"/>
</linearGradient>
<linearGradient id="paint6_linear_68_1619" x1="15.5661" y1="26.8056" x2="12.5532" y2="23.0758" gradientUnits="userSpaceOnUse">
<stop stop-color="#C2CECE" stop-opacity="0"/>
<stop offset="0.179" stop-color="#AFBCBC" stop-opacity="0.179"/>
<stop offset="1" stop-color="#5B6A6A"/>
</linearGradient>
<linearGradient id="paint7_linear_68_1619" x1="15.172" y1="19.732" x2="15.172" y2="10.475" gradientUnits="userSpaceOnUse">
<stop stop-color="#C2CECE" stop-opacity="0"/>
<stop offset="0.179" stop-color="#AFBCBC" stop-opacity="0.179"/>
<stop offset="1" stop-color="#5B6A6A"/>
</linearGradient>
<linearGradient id="paint8_linear_68_1619" x1="22.8544" y1="19.732" x2="22.8544" y2="10.475" gradientUnits="userSpaceOnUse">
<stop stop-color="#C2CECE" stop-opacity="0"/>
<stop offset="0.179" stop-color="#AFBCBC" stop-opacity="0.179"/>
<stop offset="1" stop-color="#5B6A6A"/>
</linearGradient>
<linearGradient id="paint9_linear_68_1619" x1="30.702" y1="16.8152" x2="24.4954" y2="18.4376" gradientUnits="userSpaceOnUse">
<stop offset="0.0001" stop-color="#008BF2" stop-opacity="0"/>
<stop offset="1" stop-color="#0046E2"/>
</linearGradient>
<linearGradient id="paint10_linear_68_1619" x1="15.4389" y1="7.82437" x2="13.0344" y2="5.41992" gradientUnits="userSpaceOnUse">
<stop offset="0.0001" stop-color="#008BF2" stop-opacity="0"/>
<stop offset="1" stop-color="#0046E2"/>
</linearGradient>
<linearGradient id="paint11_linear_68_1619" x1="13.1202" y1="2.91666" x2="13.1202" y2="15.9346" gradientUnits="userSpaceOnUse">
<stop stop-color="#FFC200"/>
<stop offset="0.268" stop-color="#FFBB00"/>
<stop offset="0.659" stop-color="#FFA801"/>
<stop offset="1" stop-color="#FF9102"/>
</linearGradient>
<linearGradient id="paint12_linear_68_1619" x1="13.3024" y1="4.96731" x2="14.3267" y2="4.96731" gradientUnits="userSpaceOnUse">
<stop stop-color="#FFC200" stop-opacity="0"/>
<stop offset="0.203" stop-color="#FFBB00" stop-opacity="0.203"/>
<stop offset="0.499" stop-color="#FFA700" stop-opacity="0.499"/>
<stop offset="0.852" stop-color="#FF8800" stop-opacity="0.852"/>
<stop offset="1" stop-color="#FF7800"/>
</linearGradient>
<linearGradient id="paint13_linear_68_1619" x1="23.6924" y1="7.82437" x2="21.2878" y2="5.41992" gradientUnits="userSpaceOnUse">
<stop offset="0.0001" stop-color="#008BF2" stop-opacity="0"/>
<stop offset="1" stop-color="#0046E2"/>
</linearGradient>
<linearGradient id="paint14_linear_68_1619" x1="21.3737" y1="2.91666" x2="21.3737" y2="15.9346" gradientUnits="userSpaceOnUse">
<stop stop-color="#FFC200"/>
<stop offset="0.268" stop-color="#FFBB00"/>
<stop offset="0.659" stop-color="#FFA801"/>
<stop offset="1" stop-color="#FF9102"/>
</linearGradient>
<linearGradient id="paint15_linear_68_1619" x1="21.5564" y1="4.96731" x2="22.5801" y2="4.96731" gradientUnits="userSpaceOnUse">
<stop stop-color="#FFC200" stop-opacity="0"/>
<stop offset="0.203" stop-color="#FFBB00" stop-opacity="0.203"/>
<stop offset="0.499" stop-color="#FFA700" stop-opacity="0.499"/>
<stop offset="0.852" stop-color="#FF8800" stop-opacity="0.852"/>
<stop offset="1" stop-color="#FF7800"/>
</linearGradient>
<clipPath id="clip0_68_1619">
<rect width="31" height="31" fill="white" transform="translate(2 2)"/>
</clipPath>
</defs>
</svg>
