<svg width="257" height="142" viewBox="0 0 257 142" fill="none" xmlns="http://www.w3.org/2000/svg">
<path d="M3.666 16.117C3.34533 16.117 3.003 16.0953 2.639 16.052C2.275 16.0087 1.924 15.961 1.586 15.909C1.25667 15.8483 0.979333 15.7877 0.754 15.727L0.884 14.765C1.10067 14.7997 1.36067 14.843 1.664 14.895C1.976 14.9383 2.29667 14.9773 2.626 15.012C2.95533 15.038 3.25867 15.051 3.536 15.051C4.09067 15.051 4.524 14.8993 4.836 14.596C5.15667 14.284 5.317 13.8333 5.317 13.244C5.317 12.8453 5.24767 12.5333 5.109 12.308C4.979 12.0827 4.78833 11.9223 4.537 11.827C4.28567 11.7317 3.99533 11.684 3.666 11.684C3.41467 11.684 3.16767 11.71 2.925 11.762C2.68233 11.8053 2.457 11.866 2.249 11.944C2.041 12.0133 1.872 12.0827 1.742 12.152L0.91 11.996L1.131 7.42H6.24V8.538H2.145L1.924 11.047C2.06267 10.9863 2.236 10.9213 2.444 10.852C2.652 10.774 2.87733 10.709 3.12 10.657C3.36267 10.605 3.59667 10.579 3.822 10.579C4.394 10.579 4.88367 10.6613 5.291 10.826C5.707 10.9907 6.02767 11.2593 6.253 11.632C6.47833 12.0047 6.591 12.503 6.591 13.127C6.591 13.7943 6.474 14.349 6.24 14.791C6.006 15.233 5.668 15.5667 5.226 15.792C4.79267 16.0087 4.27267 16.117 3.666 16.117Z" fill="#0C0D0D"/>
<rect x="16" y="7" width="241" height="8" rx="2" fill="#FFB400"/>
<path d="M4.563 46V44.401H0.494V43.465L2.782 37.42H4.173L1.768 43.322H4.563L4.589 40.787H5.798V43.322H6.799V44.401H5.798V46H4.563Z" fill="#0C0D0D"/>
<rect x="16" y="37" width="241" height="8" rx="2" fill="#E4E6E7" fill-opacity="0.5"/>
<path d="M16 39C16 37.8954 16.8954 37 18 37H208.8V45H18C16.8954 45 16 44.1046 16 43V39Z" fill="#FFB400"/>
<path d="M3.575 76.13C3.24567 76.13 2.90333 76.1083 2.548 76.065C2.20133 76.0303 1.86767 75.987 1.547 75.935C1.235 75.883 0.975 75.831 0.767 75.779L0.858 74.791C1.05733 74.8257 1.30433 74.8647 1.599 74.908C1.89367 74.9427 2.20133 74.9773 2.522 75.012C2.85133 75.038 3.15467 75.051 3.432 75.051C4.02133 75.051 4.459 74.9253 4.745 74.674C5.031 74.4227 5.174 74.0457 5.174 73.543C5.174 73.1877 5.10033 72.906 4.953 72.698C4.81433 72.49 4.61933 72.3383 4.368 72.243C4.12533 72.1477 3.848 72.0957 3.536 72.087H1.807V71.034H3.523C3.73967 71.034 3.96067 70.982 4.186 70.878C4.41133 70.7653 4.59767 70.605 4.745 70.397C4.901 70.1803 4.979 69.9247 4.979 69.63C4.979 69.1793 4.849 68.8587 4.589 68.668C4.33767 68.4687 3.91733 68.369 3.328 68.369C3.05067 68.369 2.76467 68.382 2.47 68.408C2.17533 68.434 1.898 68.4687 1.638 68.512C1.378 68.5467 1.157 68.5813 0.975 68.616L0.897 67.641C1.07033 67.589 1.29567 67.537 1.573 67.485C1.85033 67.4243 2.145 67.3767 2.457 67.342C2.77767 67.2987 3.08967 67.277 3.393 67.277C4.08633 67.277 4.641 67.3593 5.057 67.524C5.48167 67.68 5.785 67.9227 5.967 68.252C6.15767 68.5813 6.253 69.0103 6.253 69.539C6.253 69.8597 6.20533 70.1327 6.11 70.358C6.01467 70.5747 5.89767 70.761 5.759 70.917C5.62033 71.0643 5.48167 71.1857 5.343 71.281C5.213 71.3677 5.109 71.4327 5.031 71.476C5.317 71.5887 5.564 71.7187 5.772 71.866C5.98 72.0047 6.14467 72.204 6.266 72.464C6.38733 72.724 6.448 73.075 6.448 73.517C6.448 74.115 6.344 74.609 6.136 74.999C5.93667 75.3803 5.62467 75.6663 5.2 75.857C4.77533 76.039 4.23367 76.13 3.575 76.13Z" fill="#0C0D0D"/>
<rect x="16" y="67" width="241" height="8" rx="2" fill="#E4E6E7" fill-opacity="0.5"/>
<path d="M16 69C16 67.8954 16.8954 67 18 67H160.6V75H18C16.8954 75 16 74.1046 16 73V69Z" fill="#FFB400"/>
<path d="M0.858 106V104.973L3.185 102.542C3.549 102.169 3.861 101.836 4.121 101.541C4.38967 101.238 4.59333 100.947 4.732 100.67C4.87067 100.384 4.94 100.085 4.94 99.773C4.94 99.2443 4.79267 98.8803 4.498 98.681C4.212 98.4817 3.77433 98.382 3.185 98.382C2.95967 98.382 2.70833 98.3993 2.431 98.434C2.16233 98.46 1.90233 98.4947 1.651 98.538C1.39967 98.5727 1.183 98.6117 1.001 98.655L0.923 97.654C1.105 97.5933 1.33033 97.537 1.599 97.485C1.87633 97.433 2.17533 97.3897 2.496 97.355C2.81667 97.3117 3.133 97.29 3.445 97.29C4.36367 97.29 5.05267 97.4763 5.512 97.849C5.98 98.213 6.214 98.8023 6.214 99.617C6.214 100.05 6.149 100.436 6.019 100.774C5.889 101.112 5.68967 101.446 5.421 101.775C5.161 102.096 4.823 102.451 4.407 102.841L2.301 104.934H6.396V106H0.858Z" fill="#0C0D0D"/>
<rect x="16" y="97" width="241" height="8" rx="2" fill="#E4E6E7" fill-opacity="0.5"/>
<path d="M16 99C16 97.8954 16.8954 97 18 97H112.4V105H18C16.8954 105 16 104.105 16 103V99Z" fill="#FFB400"/>
<path d="M3.939 136V128.785L1.794 130.163L1.274 129.24L4.043 127.42H5.174V136H3.939Z" fill="#0C0D0D"/>
<rect x="16" y="127" width="241" height="8" rx="2" fill="#E4E6E7" fill-opacity="0.5"/>
<path d="M16 129C16 127.895 16.8954 127 18 127H64.2V135H18C16.8954 135 16 134.105 16 133V129Z" fill="#FFB400"/>
</svg>
