<svg width="372" height="149" viewBox="0 0 372 149" fill="none" xmlns="http://www.w3.org/2000/svg">
<path d="M308 19.1786C308.002 19.8481 307.806 20.5031 307.438 21.0607C307.069 21.6182 306.545 22.0532 305.93 22.3106C305.316 22.5681 304.64 22.6363 303.987 22.5067C303.334 22.3772 302.734 22.0556 302.263 21.5828C301.792 21.11 301.471 20.5071 301.34 19.8505C301.21 19.194 301.276 18.5132 301.53 17.8945C301.784 17.2757 302.215 16.7468 302.768 16.3747C303.322 16.0025 303.972 15.8038 304.638 15.8038C305.528 15.8038 306.382 16.1591 307.012 16.7917C307.643 17.4244 307.998 18.2827 308 19.1786Z" fill="#60D290"/>
<path d="M226.086 23.945C226.084 24.612 225.886 25.2637 225.517 25.8175C225.147 26.3713 224.623 26.8025 224.009 27.0566C223.396 27.3107 222.722 27.3763 222.072 27.2451C221.422 27.1139 220.825 26.7918 220.357 26.3195C219.889 25.8472 219.57 25.2458 219.442 24.5914C219.313 23.937 219.38 23.2589 219.634 22.6428C219.888 22.0267 220.318 21.5001 220.869 21.1297C221.421 20.7592 222.069 20.5615 222.732 20.5615C223.173 20.5615 223.61 20.6491 224.017 20.8192C224.425 20.9894 224.795 21.2387 225.107 21.553C225.418 21.8673 225.665 22.2404 225.833 22.6508C226.001 23.0613 226.087 23.501 226.086 23.945Z" fill="#60D290"/>
<path d="M183.236 67.4512C183.237 68.1208 183.042 68.7758 182.673 69.3333C182.305 69.8909 181.78 70.3259 181.166 70.5833C180.551 70.8407 179.875 70.909 179.222 70.7794C178.569 70.6498 177.969 70.3283 177.498 69.8554C177.027 69.3826 176.706 68.7798 176.576 68.1232C176.445 67.4666 176.511 66.7859 176.765 66.1672C177.02 65.5484 177.451 65.0195 178.004 64.6473C178.557 64.2752 179.207 64.0765 179.873 64.0765C180.314 64.0753 180.751 64.1618 181.159 64.3309C181.567 64.5 181.938 64.7484 182.25 65.0618C182.563 65.3753 182.81 65.7477 182.979 66.1578C183.149 66.5678 183.236 67.0073 183.236 67.4512Z" fill="#60D290"/>
<path d="M73.9703 3.37473C73.9703 4.04219 73.7736 4.69466 73.405 5.24964C73.0365 5.80461 72.5126 6.23716 71.8998 6.49258C71.2869 6.74801 70.6125 6.81484 69.9619 6.68462C69.3113 6.55441 68.7137 6.233 68.2446 5.76103C67.7755 5.28907 67.4561 4.68775 67.3267 4.03311C67.1972 3.37848 67.2637 2.69993 67.5175 2.08328C67.7714 1.46663 68.2013 0.939568 68.7528 0.568747C69.3044 0.197927 69.9529 0 70.6162 0C71.5051 0.00229611 72.3569 0.358586 72.9854 0.990974C73.6139 1.62336 73.968 2.48041 73.9703 3.37473Z" fill="#60D290"/>
<path d="M269.991 90.5959C268.247 90.5977 266.541 90.0788 265.09 89.105C263.639 88.1312 262.507 86.7462 261.839 85.1253C261.17 83.5043 260.994 81.7203 261.333 79.9988C261.673 78.2772 262.512 76.6956 263.745 75.454C264.977 74.2124 266.548 73.3666 268.259 73.0236C269.97 72.6806 271.743 72.8557 273.355 73.527C274.966 74.1982 276.344 75.3353 277.313 76.7944C278.282 78.2536 278.8 79.9692 278.8 81.7242C278.795 84.0742 277.866 86.3268 276.215 87.9893C274.564 89.6518 272.327 90.589 269.991 90.5959ZM269.991 74.2615C268.524 74.2615 267.09 74.6992 265.87 75.5192C264.651 76.3392 263.7 77.5047 263.139 78.8684C262.577 80.232 262.43 81.7325 262.717 83.1801C263.003 84.6277 263.709 85.9574 264.746 87.0011C265.784 88.0448 267.105 88.7555 268.544 89.0435C269.983 89.3314 271.474 89.1837 272.829 88.6188C274.185 88.054 275.343 87.0975 276.158 85.8702C276.973 84.643 277.408 83.2002 277.408 81.7242C277.409 80.7431 277.218 79.7713 276.846 78.8644C276.474 77.9575 275.928 77.1332 275.239 76.4386C274.55 75.744 273.732 75.1927 272.832 74.8162C271.931 74.4396 270.966 74.2453 269.991 74.2441V74.2615Z" fill="#60D290"/>
<path d="M8.8173 44.3847C7.0734 44.3847 5.36867 43.8644 3.91867 42.8896C2.46867 41.9148 1.33854 40.5292 0.671182 38.9081C0.00382164 37.287 -0.170792 35.5032 0.169425 33.7822C0.509643 32.0613 1.34941 30.4805 2.58253 29.2398C3.81565 27.999 5.38674 27.1541 7.09713 26.8118C8.80752 26.4694 10.5804 26.6451 12.1915 27.3166C13.8027 27.9881 15.1798 29.1252 16.1486 30.5842C17.1175 32.0431 17.6346 33.7584 17.6346 35.513C17.6323 37.8652 16.7026 40.1205 15.0495 41.7837C13.3965 43.447 11.1551 44.3824 8.8173 44.3847ZM8.8173 28.0503C7.35037 28.0503 5.91639 28.488 4.69669 29.308C3.47699 30.128 2.52634 31.2936 1.96497 32.6572C1.40361 34.0208 1.25673 35.5213 1.54291 36.9689C1.82909 38.4165 2.53549 39.7463 3.57276 40.7899C4.61003 41.8336 5.9316 42.5444 7.37033 42.8323C8.80907 43.1203 10.3004 42.9725 11.6556 42.4076C13.0109 41.8428 14.1692 40.8863 14.9842 39.6591C15.7992 38.4318 16.2342 36.989 16.2342 35.513C16.2319 33.5345 15.4498 31.6377 14.0593 30.2387C12.6689 28.8396 10.7837 28.0526 8.8173 28.0503Z" fill="#60D290"/>
<path d="M361.639 66.277C359.895 66.2787 358.189 65.7598 356.738 64.786C355.287 63.8122 354.155 62.4273 353.487 60.8063C352.818 59.1854 352.642 57.4013 352.981 55.6798C353.321 53.9583 354.16 52.3767 355.392 51.1351C356.625 49.8935 358.196 49.0476 359.907 48.7046C361.618 48.3616 363.391 48.5368 365.003 49.208C366.614 49.8792 367.992 51.0163 368.961 52.4755C369.93 53.9346 370.448 55.6502 370.448 57.4052C370.445 59.7559 369.517 62.0099 367.866 63.6729C366.214 65.3359 363.975 66.2724 361.639 66.277ZM361.639 49.9425C360.17 49.9408 358.733 50.3778 357.51 51.1981C356.288 52.0184 355.335 53.1852 354.772 54.5507C354.209 55.9163 354.061 57.4193 354.347 58.8694C354.633 60.3195 355.341 61.6516 356.38 62.697C357.419 63.7424 358.743 64.4542 360.184 64.7422C361.625 65.0302 363.119 64.8815 364.476 64.3149C365.833 63.7484 366.993 62.7894 367.808 61.5594C368.623 60.3294 369.058 58.8837 369.056 57.4052C369.054 55.4267 368.271 53.5299 366.881 52.1309C365.491 50.7318 363.605 49.9448 361.639 49.9425Z" fill="#60D290"/>
<path d="M141.388 36.9134C139.643 36.9151 137.937 36.396 136.486 35.4218C135.035 34.4477 133.903 33.0622 133.235 31.4407C132.566 29.8193 132.391 28.0347 132.731 26.313C133.071 24.5912 133.911 23.0096 135.145 21.7684C136.378 20.5271 137.95 19.682 139.661 19.34C141.372 18.9979 143.146 19.1744 144.758 19.8469C146.369 20.5195 147.746 21.6579 148.714 23.1182C149.682 24.5785 150.198 26.2949 150.197 28.0503C150.194 30.4003 149.266 32.6533 147.614 34.3149C145.963 35.9765 143.723 36.9111 141.388 36.9134ZM141.388 20.5877C139.921 20.5877 138.487 21.0253 137.267 21.8453C136.048 22.6654 135.097 23.8309 134.536 25.1945C133.974 26.5581 133.827 28.0586 134.114 29.5062C134.4 30.9539 135.106 32.2836 136.143 33.3273C137.181 34.3709 138.502 35.0817 139.941 35.3696C141.38 35.6576 142.871 35.5098 144.226 34.945C145.582 34.3801 146.74 33.4236 147.555 32.1964C148.37 30.9692 148.805 29.5263 148.805 28.0503C148.803 26.0718 148.02 24.175 146.63 22.776C145.24 21.3769 143.354 20.59 141.388 20.5877Z" fill="#60D290"/>
</svg>
